<?xml version="1.0" encoding="UTF-8"?>
<svg width="16px" height="16px" viewBox="0 0 16 16" version="1.1" xmlns="http://www.w3.org/2000/svg" xmlns:xlink="http://www.w3.org/1999/xlink">
    <g id="mark" stroke="none" stroke-width="1" fill="none" fill-rule="evenodd">
        <path d="M2,10.378 L2,5.5 C2,3.833 2.833,3 4.5,3 L11.5,3 C13.167,3 14,3.833 14,5.5 L14,8.5 C14,10.167 13.167,11 11.5,11 L6.372,11 C6.303,10.9 6.229,10.805 6.148,10.714 C6.068,10.623 5.982,10.537 5.892,10.456 C5.801,10.376 5.706,10.301 5.606,10.232 C5.506,10.163 5.402,10.1 5.295,10.044 C5.311,10.037 5.327,10.03 5.344,10.025 C5.361,10.019 5.378,10.015 5.395,10.011 C5.412,10.007 5.43,10.005 5.447,10.003 C5.465,10.001 5.482,10 5.5,10 L11.5,10 C12.5,10 13,9.5 13,8.5 L13,5.5 C13,4.5 12.5,4 11.5,4 L4.5,4 C3.5,4 3,4.5 3,5.5 L3,9.838 C2.909,9.867 2.82,9.9 2.732,9.937 C2.644,9.974 2.558,10.015 2.474,10.06 C2.39,10.106 2.309,10.155 2.23,10.208 C2.15,10.261 2.074,10.318 2,10.378 Z M6,9 C6.732,9 7.398,8.625 8,7.874 C8.602,8.625 9.268,9 10,9 C11.333,9 12,8.333 12,7 C12,5.667 11.333,5 10,5 C9.268,5 8.602,5.375 8,6.126 C7.398,5.375 6.732,5 6,5 C4.667,5 4,5.667 4,7 C4,8.333 4.667,9 6,9 Z M6,6 C6.477,6 6.945,6.333 7.404,7 C6.945,7.667 6.477,8 6,8 C5.333,8 5,7.667 5,7 C5,6.333 5.333,6 6,6 Z M8.596,7 C9.055,7.667 9.523,8 10,8 C10.667,8 11,7.667 11,7 C11,6.333 10.667,6 10,6 C9.523,6 9.055,6.333 8.596,7 Z" id="mark-path" fill="#FFFFFF"></path>
    </g>
    <circle class="error" fill="#f23c34" cx="3.9" cy="12.7" r="2.2"/>
</svg>
